<svg width="72" height="72" viewBox="0 0 72 72" fill="none" xmlns="http://www.w3.org/2000/svg">
<path fill-rule="evenodd" clip-rule="evenodd" d="M72 36C72 55.8823 55.8823 72 36 72C16.1177 72 0 55.8823 0 36C0 16.1177 16.1177 0 36 0C55.8823 0 72 16.1177 72 36ZM47.268 57.736C45.532 57.736 43.92 57.674 42.432 57.55C41.1961 57.4813 39.6894 57.2701 37.9119 56.9163C37.8388 56.9201 37.7649 56.922 37.69 56.922H37.318C37.194 56.922 37.07 56.9013 36.946 56.86C35.83 55.744 34.59 54.2767 33.226 52.458C31.9033 50.598 30.5393 48.552 29.134 46.32C27.7287 44.088 26.3647 41.8353 25.042 39.562C24.2153 39.7273 23.3267 39.8927 22.376 40.058C21.4667 40.182 20.4953 40.2853 19.462 40.368C19.2967 43.0547 19.0487 45.7413 18.718 48.428C18.3873 51.0733 18.0567 53.6567 17.726 56.178C17.4367 56.4673 17.0233 56.6947 16.486 56.86C15.99 57.0253 15.5973 57.108 15.308 57.108C14.936 57.108 14.75 57.046 14.75 56.922C14.9567 55.1447 15.1427 52.8093 15.308 49.916C15.5147 46.9813 15.618 43.84 15.618 40.492H13.448C12.7453 40.492 12.084 40.4713 11.464 40.43C11.0507 40.058 10.7613 39.624 10.596 39.128C10.472 38.5907 10.41 38.198 10.41 37.95C10.41 37.6193 10.472 37.454 10.596 37.454C11.2573 37.578 11.96 37.6607 12.704 37.702H15.556C15.5147 34.8913 15.3287 32.122 14.998 29.394C14.6673 26.6247 14.1507 24.124 13.448 21.892C12.7453 19.6187 11.8153 17.8 10.658 16.436L13.572 12.282C15.8453 13.77 18.098 15.0307 20.33 16.064C22.6033 17.056 24.732 17.9653 26.716 18.792C28.7413 19.6187 30.5187 20.4867 32.048 21.396C33.6187 22.264 34.838 23.2767 35.706 24.434C36.6153 25.55 37.07 26.9553 37.07 28.65C37.07 30.262 36.5327 31.9567 35.458 33.734C34.3833 35.47 32.4407 36.9373 29.63 38.136C30.5807 40.244 31.6347 42.4347 32.792 44.708C33.9907 46.9813 35.1893 49.1307 36.388 51.156C37.1743 52.4404 37.9108 53.5834 38.5974 54.5852C39.7424 54.8257 41.3513 54.946 43.424 54.946C46.276 54.946 48.7973 54.5533 50.988 53.768C53.1787 52.9413 54.894 51.784 56.134 50.296C57.374 48.808 57.994 47.0307 57.994 44.964C57.994 43.5173 57.5807 42.2773 56.754 41.244C55.9273 40.1693 54.8527 39.2807 53.53 38.578C52.2487 37.834 50.8847 37.276 49.438 36.904C47.9913 36.4907 46.6273 36.2427 45.346 36.16C45.3047 38.4747 45.1807 40.7067 44.974 42.856C44.7673 44.964 44.5193 46.8033 44.23 48.374C43.9407 49.9033 43.6513 50.9573 43.362 51.536C43.1553 51.8253 42.8247 52.0527 42.37 52.218C41.9153 52.3833 41.5847 52.466 41.378 52.466C41.0887 52.466 40.944 52.404 40.944 52.28C41.1507 51.04 41.3367 49.4693 41.502 47.568C41.7087 45.6667 41.812 43.6207 41.812 41.43C41.812 38.3713 41.6673 35.3127 41.378 32.254C41.0887 29.1953 40.5513 26.4053 39.766 23.884C38.9807 21.3213 37.844 19.3167 36.356 17.87L38.898 13.716C40.4273 14.9973 42.1427 15.9687 44.044 16.63C45.9453 17.2913 47.8467 17.808 49.748 18.18C51.6907 18.552 53.468 18.924 55.08 19.296C56.7333 19.668 58.056 20.226 59.048 20.97C60.04 21.6727 60.536 22.7473 60.536 24.194C60.536 25.1033 60.164 26.0127 59.42 26.922C58.7173 27.79 57.8287 28.6373 56.754 29.464C55.6793 30.2493 54.584 30.952 53.468 31.572C52.3933 32.1507 51.4633 32.626 50.678 32.998C49.8927 33.37 49.438 33.5767 49.314 33.618C52.9513 33.866 55.9067 34.5893 58.18 35.788C60.4947 36.9867 62.1893 38.454 63.264 40.19C64.38 41.8847 64.938 43.662 64.938 45.522C64.938 47.5473 64.2973 49.5107 63.016 51.412C61.776 53.272 59.854 54.8013 57.25 56C54.646 57.1573 51.3187 57.736 47.268 57.736ZM45.408 31.634C47.0613 30.9727 48.4873 30.2287 49.686 29.402C50.8847 28.5753 51.8147 27.7693 52.476 26.984C53.1787 26.1987 53.53 25.5787 53.53 25.124C53.53 24.504 53.1787 24.008 52.476 23.636C51.7733 23.2227 50.9053 22.892 49.872 22.644C48.88 22.3547 47.8673 22.086 46.834 21.838C45.842 21.5487 45.036 21.2387 44.416 20.908C44.4573 20.9493 44.54 21.3007 44.664 21.962C44.8293 22.582 44.9947 23.6773 45.16 25.248C45.3253 26.7773 45.408 28.906 45.408 31.634ZM28.08 34.292C26.3027 35.8213 23.4713 36.8547 19.586 37.392C19.71 35.5733 19.772 33.8167 19.772 32.122C19.772 29.9313 19.6893 27.8027 19.524 25.736C19.4 23.6693 19.1313 21.4993 18.718 19.226C20.9913 20.1353 23.0373 21.0447 24.856 21.954C26.6747 22.822 28.1213 23.8347 29.196 24.992C30.2707 26.108 30.808 27.5133 30.808 29.208C30.808 31.0267 29.8987 32.7213 28.08 34.292Z" fill="#D9D9D9"/>
</svg>